<svg xmlns="http://www.w3.org/2000/svg" xmlns:xlink="http://www.w3.org/1999/xlink" viewBox="0 0 391.8 57.1"><defs><style>.cls-1,.cls-3{fill:#fff;}.cls-2,.cls-3,.cls-4{fill-rule:evenodd;}.cls-2{fill:url(#linear-gradient);}.cls-4{fill:url(#linear-gradient-2);}</style><linearGradient id="linear-gradient" x1="28.53" y1="0.12" x2="28.53" y2="56.95" gradientUnits="userSpaceOnUse"><stop offset="0" stop-color="#ed808c"/><stop offset="0.84" stop-color="#bf2f38"/></linearGradient><linearGradient id="linear-gradient-2" x1="28.53" x2="28.53" y2="57.15" gradientUnits="userSpaceOnUse"><stop offset="0" stop-color="#6682c1"/><stop offset="1" stop-color="#223870"/></linearGradient></defs><title>sensors2019-logo_web_03</title><g id="Layer_2" data-name="Layer 2"><g id="Layer_1-2" data-name="Layer 1"><path class="cls-1" d="M76.6,29.4c-3.9-.1-4.8,0-8.3.1l-.2-.2c.1-5.8.2-11.6.2-17.4S68.2,4,68.1,1.1l.2-.2h8.2l.2.2c-.1,2.2-.2,5.6-.2,11.6s.1,11,.3,16.6ZM96.9,17.6H89.7v5.8c2,0,6.2,0,8.6-.2l.3.2c-.2,2.6-.3,3.4-.3,5.8l-.3.3H81.8l-.2-.2c0-3.1.1-6.4.1-12.9s0-10.5-.3-15.3l.3-.2H97.8L98,1c-.2,2.6-.2,3.4-.3,5.4l-.2.3H89.7V12l7.4-.2.3.2c-.2,2.3-.2,3.1-.3,5.3Zm21,0h-7.2v5.8c2,0,6.2,0,8.7-.2l.2.2c-.2,2.6-.2,3.4-.3,5.8l-.3.3H102.8l-.2-.2c.1-3.1.1-6.4.1-12.9s0-10.5-.2-15.3l.2-.2h16.1l.2.2c-.2,2.6-.2,3.4-.2,5.4l-.3.3h-7.8V12l7.5-.2.2.2c-.2,2.3-.2,3.1-.3,5.3Zm21,0h-7.1v5.8c1.9,0,6.2,0,8.6-.2l.2.2c-.2,2.6-.2,3.4-.3,5.8l-.2.3H123.8l-.2-.2c.1-3.1.2-6.4.2-12.9s0-10.5-.3-15.3l.2-.2h16.2l.2.2c-.2,2.6-.2,3.4-.3,5.4l-.3.3h-7.7a46.8,46.8,0,0,0,0,5.3l7.4-.2.2.2c-.1,2.3-.1,3.1-.3,5.3ZM168,7.8A7,7,0,0,0,163.4,6c-1.6,0-2.8.9-2.8,2.3s1,2.3,3,3.6c3.7,2.6,6.1,4.2,6.1,8.6a9.3,9.3,0,0,1-2.3,6.4c-2.2,2.5-5.3,3-8.2,3a15.2,15.2,0,0,1-6.2-1.2l-.2-.4c.1-1,.1-2.1.2-3.1a24.4,24.4,0,0,1,.1-2.7h.2a7.4,7.4,0,0,0,5,1.8c2.9,0,3.2-2.2,3.2-2.8s-1.1-2.2-2.7-3.4l-1.6-1.1c-1.9-1.4-4.6-3.3-4.6-7.9A9.2,9.2,0,0,1,155,2.6C156.7,1,159.1.3,162.1.3a15.3,15.3,0,0,1,6.4,1.3v.3c-.1,1-.1,2-.2,3V7.7Zm20.5,9.8h-7.2v5.8c2,0,6.2,0,8.7-.2l.2.2c-.2,2.6-.2,3.4-.3,5.8l-.3.3H173.4l-.2-.2c.1-3.1.1-6.4.1-12.9s0-10.5-.2-15.3l.2-.2h16.1l.2.2c-.2,2.6-.2,3.4-.2,5.4l-.3.3h-7.8V12l7.5-.2.2.2c-.2,2.3-.2,3.1-.3,5.3Zm12.1-3.8.2,5.9c.1,4.8.2,5,.4,9.4l-.3.3h-6.4l-.2-.2c0-2.1.1-4.1.1-7.3s-.1-10.9-.1-13.4-.1-5-.2-7.5l.2-.2h7.3l.3.2c1.3,2.4,1.8,3.3,5,8.4l3.9,6-.2-6.8c0-1.1-.1-6.3-.2-7.5l.2-.2h6.1l.3.2c0,2.5-.1,14.9-.1,17.7,0,5.3.1,8.2.1,10.4l-.2.3h-6.6l-.3-.2c-1.9-3.4-2.9-5-4.8-8.1Zm35.5-6A7,7,0,0,0,231.5,6c-1.6,0-2.8.9-2.8,2.3s1,2.3,3,3.6c3.7,2.6,6.1,4.2,6.1,8.6a9.3,9.3,0,0,1-2.3,6.4c-2.2,2.5-5.3,3-8.2,3a15.2,15.2,0,0,1-6.2-1.2l-.2-.4c0-1,.1-2.1.2-3.1a24.4,24.4,0,0,1,.1-2.7h.2a7.4,7.4,0,0,0,5,1.8c2.9,0,3.2-2.2,3.2-2.8s-1.1-2.2-2.7-3.4l-1.6-1.1c-1.9-1.4-4.6-3.3-4.6-7.9a9.2,9.2,0,0,1,2.4-6.4C224.8,1,227.2.3,230.2.3a15.3,15.3,0,0,1,6.4,1.3v.3c-.1,1-.1,2-.2,3V7.7Zm24.4-4.4c3.6,3.8,3.7,9.8,3.7,11.9a24.8,24.8,0,0,1-.6,5.4,12.2,12.2,0,0,1-2.3,5.2c-3.1,4-7.8,4-9.1,4a11,11,0,0,1-8.9-3.9c-1.6-2-2.9-5.3-2.9-10.5,0-2.2.2-8.3,3.7-12A10.8,10.8,0,0,1,252.3.3,11.1,11.1,0,0,1,260.5,3.4Zm-5.3,5.5c-.2-.5-.8-2.8-2.9-2.8a2.3,2.3,0,0,0-1.7.8c-.8.7-1.4,2.2-1.7,4.9,0,1-.1,2.2-.1,3.5s.1,2.2.1,3.2.4,3.7,1.8,4.9a2.4,2.4,0,0,0,3.2,0c1.3-1.1,1.6-3.4,1.7-4.9s.2-2.2.2-3.2A35,35,0,0,0,255.2,8.9Zm12.5-8h9.8c2.4,0,4.8.1,6.4,1,3.2,1.7,3.5,5.8,3.5,7.6,0,4.9-2.5,6.6-3.7,7.5l1.6,4c.8,1.9,2,4.8,3.6,8l-.2.3-8.2.3-.3-.2a5.8,5.8,0,0,1-.5-1.4c-.6-2-1.3-4.1-1.9-6.2l-.9-2.9h-1.2c0,5,0,6.7.2,10.3l-.2.3h-7.8l-.2-.2c0-2,.2-11.7.2-13.9s-.1-10-.3-14.3Zm9.6,12.4c1.8-.6,2-2.5,2-3.7a4,4,0,0,0-.4-2A1.9,1.9,0,0,0,277,6.4h-1.2c0,1.9-.1,5-.1,6.9A5.4,5.4,0,0,0,277.3,13.3Zm28.5-5.5A7,7,0,0,0,301.2,6a2.5,2.5,0,0,0-2.8,2.3c0,1.4,1.1,2.3,3,3.6,3.7,2.6,6.1,4.2,6.1,8.6a9.3,9.3,0,0,1-2.3,6.4c-2.2,2.5-5.3,3-8.2,3a15.6,15.6,0,0,1-6.2-1.2l-.2-.4c.1-1,.1-2.1.2-3.1a24.4,24.4,0,0,1,.1-2.7h.2a7.4,7.4,0,0,0,5,1.8c2.9,0,3.2-2.2,3.2-2.8s-1.1-2.2-2.7-3.4L295,16.9c-1.9-1.4-4.5-3.3-4.5-7.9a9.1,9.1,0,0,1,2.3-6.4C294.5,1,296.9.3,299.9.3a15.3,15.3,0,0,1,6.4,1.3v.3c0,1-.1,2-.2,3V7.7Zm15-5.3A15.1,15.1,0,0,1,328.1.4c4.4,0,8.8,2.8,8.8,9.6,0,3.9-1.3,5.7-3.8,9.4-.7.9-1.2,1.7-2.1,3,3.3,0,4.4-.1,6.5-.2l.3.2c-.2,3.1-.2,3.9-.3,6.7l-.3.3H319.6l-.3-.7c2.2-3.2,5.8-8.9,7.1-11,2.2-3.6,2.8-4.7,2.8-6.6s-1.1-3.9-3.4-3.9-4,1.5-5,2.3l-.3-.2c.1-3.1.1-3.6.1-6.6Zm35,1.4c2,3.2,2.1,8.7,2.1,11.6,0,5.9-.6,14.4-9,14.4a7.6,7.6,0,0,1-6.8-3.5c-1.7-2.5-2.2-6.2-2.2-11.7s.4-14.3,9-14.3A7.8,7.8,0,0,1,355.8,3.9Zm-5.5,4.6c-.2-1.1-.5-2.3-1.4-2.3s-1.2,1.3-1.4,2.3-.2,6-.2,6.8,0,6.5.5,7.8.4,1,1.1,1,1-.7,1.1-1,.6-5.9.6-7.7S350.5,10.2,350.3,8.5Zm19.6,20.9a64.8,64.8,0,0,0-7.6.1l-.3-.3c.2-7.2.3-14.4.2-21.6h-2.4l-.2-.3c0-1.3,0-3.3.1-5.2l.2-.3,5.1-.7,4.8-.8.2.3v.9c0,2.1-.1,12.1-.1,14.4,0,6.9.2,10.8.3,13.1Zm5.8-7.2a5.3,5.3,0,0,0,3.9,1.6,4.2,4.2,0,0,0,2.8-.9,5.5,5.5,0,0,0,1.7-3.9,6.8,6.8,0,0,1-3.9,1.3c-3.9,0-7-3.4-7-9.4,0-1.8.2-5.4,2.6-8A9.1,9.1,0,0,1,382.4.4a8.3,8.3,0,0,1,6.7,3c2.7,3.3,2.7,8.5,2.7,10.3a25,25,0,0,1-1.7,9.8c-2.3,5.5-6.3,6.4-9.8,6.4a12.8,12.8,0,0,1-5-.9l-.3-.4c.1-2.3.2-4,.3-6.2Zm8-15.1a1.6,1.6,0,0,0-1.4-.9,1.2,1.2,0,0,0-.9.3c-1,.8-1.1,2.4-1.1,3.2s.4,3.8,2,3.8a2.6,2.6,0,0,0,2-1.1C384.3,11,384.3,8.3,383.7,7.1Z"/><path class="cls-2" d="M28.5,57.1c14.2-.3,28.3-14.4,28.6-28.5S42.7.2,28.5,0,.2,14.4,0,28.6,14.4,56.8,28.5,57.1Z"/><path class="cls-3" d="M37.1,38.7l8-6.8-1.7-.7c-.7-.3-.5-.7-.2-1.7L44.4,25l-4.6,1a.9.9,0,0,1-.9-.6l-.6-2.1-3.6,4.2c-.5.7-1.6.7-1.3-.9S34.5,20.8,35,18l-2.1,1.1c-.6.3-1.5-.2-1.5-.2-1-1.9-1.9-3.8-2.9-5.6l-2.9,5.6c-.3.6-.9.5-1.4.2L22.1,18l1.5,8.6c.3,1.6-.7,1.6-1.2.9l-3.7-4.2-.6,2.1a.9.9,0,0,1-.8.6l-4.6-1,1.2,4.5c.3,1,.5,1.4-.3,1.7l-1.6.7,8,6.8a1.3,1.3,0,0,1,.4,1.2l-.6,2.3,7.7-.9c.3,0,.7.3.7.6v8.4a21.8,21.8,0,0,1-14.8-6.6c-4-4.1-6.7-9.4-6.7-15.1a21.6,21.6,0,0,1,6.7-15.1c4.1-4.1,9.4-6.8,15.1-6.8s11.1,2.7,15.2,6.8a21.5,21.5,0,0,1,6.6,15.1,21.8,21.8,0,0,1-6.6,15.1,22.2,22.2,0,0,1-14,6.6,12.1,12.1,0,0,0,.1,1.9,23.6,23.6,0,0,0,4.5-.8,25.7,25.7,0,0,0,10.5-6.5c4.4-4.5,7.4-10.2,7.4-16.3s-3-12-7.4-16.4S34.7,4.9,28.5,4.9,16.6,7.8,12.2,12.2A23.5,23.5,0,0,0,4.9,28.6c0,6.1,2.9,11.8,7.3,16.3s9.9,7.2,16,7.3h.9c-.1-3.4-.1-6.9-.2-10.3a.7.7,0,0,1,.6-.6l7.8.9-.6-2.3a1.1,1.1,0,0,1,.4-1.2Z"/><path class="cls-4" d="M28.5,0C14.4.2.2,14.4,0,28.6S14.4,56.8,28.5,57.1,56.8,42.7,57.1,28.6,42.7.2,28.5,0ZM44.8,44.9a25.7,25.7,0,0,1-10.5,6.5,23.6,23.6,0,0,1-4.5.8H28.2c-6.1-.1-11.7-3-16-7.3S4.9,34.7,4.9,28.6a23.5,23.5,0,0,1,7.3-16.4c4.4-4.4,10.1-7.3,16.3-7.3s11.9,2.9,16.3,7.3,7.4,10.2,7.4,16.4S49.2,40.4,44.8,44.9Z"/><path class="cls-1" d="M240.3,50.6l2.4-9.3c.2-.8.5-1.7.7-2.6s.2-1,.4-1.7l.2-.2h3.4c0,2.5,0,2.9.1,5.9l.2,3.9c0,2.4.2,4.8.3,7.1V54h-2.6v-15l-2.5,9.6-1.4,5.3-.2.2h-2.4v-.4l-1.1-4.8L235.2,39l-.3,7.7c0,1.1-.1,5.4-.1,7.1l-.2.2h-2.2c.3-3.2.3-3.6.4-6.4l.3-5.4c.2-3.7.2-4.1.2-5.1v-.2c1.6.1,2,0,3.4,0h.1c.3,1.1.7,2.7.9,3.8Z"/><path class="cls-1" d="M258.3,42.4c1.6,1.6,1.7,4.3,1.7,5.5a7.7,7.7,0,0,1-1.3,4.6,4.6,4.6,0,0,1-3.8,1.8,4.5,4.5,0,0,1-3.6-1.6c-1.4-1.6-1.4-4-1.4-5s0-3.5,1.6-5.2a5,5,0,0,1,3.6-1.4A4.6,4.6,0,0,1,258.3,42.4Zm-1.6,1.4a2.1,2.1,0,0,0-1.8-1c-2.2,0-2.5,2.9-2.5,4.8a10.6,10.6,0,0,0,.2,2.1c.3,2.1,1.2,2.8,2.4,2.8a1.8,1.8,0,0,0,1.8-1.1,8.3,8.3,0,0,0,.6-3.5A9.3,9.3,0,0,0,256.7,43.8Z"/><path class="cls-1" d="M268.6,53.9c.1-1.9.1-4.3.1-5.1s0-2.6-.1-3.5-.1-2.2-1.7-2.2a4,4,0,0,0-2.5,1.3c0,1.9,0,7.2.2,9.4l-.2.2H262c0-1.1.1-2.6.1-4.9s0-4.9-.2-7.3h.1l2.4-.4h.1c0,.5-.1.8-.1,1.4a5.5,5.5,0,0,1,3.6-1.5,2.8,2.8,0,0,1,2.7,1.9,10.4,10.4,0,0,1,.3,3.6v2.1c0,3.4,0,3.8.1,5l-.2.2h-2.4Z"/><path class="cls-1" d="M278.1,43.2h-1.9v6.7c0,1.4,0,2.4,1.2,2.4a1.7,1.7,0,0,0,.9-.2h.1a9.2,9.2,0,0,1-.1,1.6h-.1a3.5,3.5,0,0,1-1.6.3,2.4,2.4,0,0,1-2.7-2.1,12.8,12.8,0,0,1-.1-2.2V43.1h-1.3l-.2-.2a8.6,8.6,0,0,0,.1-1.5h1.4v-3h.1l2.2-.6h.2a35.5,35.5,0,0,0-.1,3.6h2.1a8.6,8.6,0,0,0-.1,1.5Z"/><path class="cls-1" d="M282.1,54h-2.4c.1-1.3.1-2.5.1-4.5,0-4.5-.1-5.8-.2-7.7h.1l2.3-.4h.2v2.2a3,3,0,0,1,2.7-2.4,1.5,1.5,0,0,1,.8.2h.1c-.1,1.1-.1,1.4-.2,2.4h-.1a1.9,1.9,0,0,0-1.2-.4,2.5,2.5,0,0,0-1.3.5c-.8.9-.8,2-.8,4.1s0,4.1.1,5.7Z"/><path class="cls-1" d="M289.2,47.9a5.8,5.8,0,0,0,.5,2.6,3.3,3.3,0,0,0,3.1,1.9,4.1,4.1,0,0,0,2.7-.9h.1a10.9,10.9,0,0,1-.1,1.8v.2l-1,.4-2.1.3a5,5,0,0,1-4.1-1.8,7.4,7.4,0,0,1-1.4-4.8c0-4.5,2.2-5.8,3-6.2a4.1,4.1,0,0,1,1.9-.4,3.7,3.7,0,0,1,1.8.4c2.4,1.2,2.6,4,2.5,6.2l-.2.2Zm4.5-1.6a4.7,4.7,0,0,0-.2-1.6,2,2,0,0,0-1.9-1.9,2,2,0,0,0-1.6.9,5.9,5.9,0,0,0-.8,2.6Z"/><path class="cls-1" d="M303.7,53.1a4.4,4.4,0,0,1-2.9,1.1,3.5,3.5,0,0,1-3.5-3.8c0-3.7,3.5-4.4,5.3-4.8l1.1-.2c0-1.3,0-2.5-2.2-2.5a5.9,5.9,0,0,0-3,.9h-.1a10.3,10.3,0,0,1,.1-1.7h.1a8.1,8.1,0,0,1,3.6-.8,3.8,3.8,0,0,1,3.4,1.6c.4.8.4,1.7.4,3.6v2.5c0,2.4,0,3.4.1,5V54h-2.3Zm0-6.1a8.7,8.7,0,0,0-2.6.7,2.5,2.5,0,0,0-1.5,2.5,2,2,0,0,0,2,2.2,3.5,3.5,0,0,0,2.1-1Z"/><path class="cls-1" d="M311,54h-2.5c0-1.6.1-3.4.1-5.8s0-5.8-.1-8.7a23.3,23.3,0,0,0-.2-3.4l.2-.2,2.3-.4.2.2c0,1.3-.1,2.5-.1,4.8s.1,9.8.2,13.4Z"/><path class="cls-1" d="M316.5,51.3c-.7,1.8-1.6,4.1-2.1,5.6v.2h-1.6a35.8,35.8,0,0,0,1.1-5.6h2.7Z"/><path class="cls-1" d="M334.9,51.2c0,.9-.1,1.1-.1,2.1v.2a6.9,6.9,0,0,1-3.5.8,6.5,6.5,0,0,1-5.3-2.3,10,10,0,0,1-2.1-6.4c0-5.1,2.4-9.1,7.5-9.1a9.4,9.4,0,0,1,3.4.7v.2c0,.4-.1.7-.1,1.1a3.4,3.4,0,0,1-.1,1h-.1a4.6,4.6,0,0,0-3-1c-3.5,0-5,3.3-5,7s2.2,6.6,5.1,6.6a5.2,5.2,0,0,0,3.2-1.1Z"/><path class="cls-1" d="M342.6,53.1a4.4,4.4,0,0,1-2.9,1.1c-2.2,0-3.4-1.7-3.4-3.8,0-3.7,3.4-4.4,5.2-4.8l1.1-.2c0-1.3,0-2.5-2.1-2.5a5.3,5.3,0,0,0-3,.9h-.2a9.1,9.1,0,0,0,.1-1.7h.1a8.4,8.4,0,0,1,3.6-.8c.8,0,2.6.1,3.4,1.6s.4,1.7.4,3.6v2.5c0,2.4,0,3.4.1,5V54h-2.3Zm0-6.1a8.7,8.7,0,0,0-2.6.7,2.5,2.5,0,0,0-1.5,2.5,2.1,2.1,0,0,0,2,2.2,3.2,3.2,0,0,0,2.1-1Z"/><path class="cls-1" d="M354,53.9c.1-1.9.1-4.3.1-5.1V45.3c-.1-.5-.1-2.2-1.7-2.2a3.8,3.8,0,0,0-2.5,1.3c0,1.9,0,7.2.1,9.4V54h-2.5c.1-1.1.1-2.6.1-4.9s0-4.9-.2-7.3h.2l2.3-.4h.2a6.1,6.1,0,0,0-.1,1.4,5.1,5.1,0,0,1,3.5-1.5,2.6,2.6,0,0,1,2.7,1.9c.4.9.4,1.5.4,3.6v2.1c0,3.4,0,3.8.1,5V54H354Z"/><path class="cls-1" d="M364.9,53.1a4.9,4.9,0,0,1-2.9,1.1,3.5,3.5,0,0,1-3.5-3.8c0-3.7,3.4-4.4,5.3-4.8l1-.2c0-1.3,0-2.5-2.1-2.5a5.3,5.3,0,0,0-3,.9h-.2a9.1,9.1,0,0,0,.1-1.7h.2a7.7,7.7,0,0,1,3.5-.8,3.6,3.6,0,0,1,3.4,1.6c.5.8.5,1.7.4,3.6v2.5a35.5,35.5,0,0,0,.2,5l-.2.2h-2.2Zm-.1-6.1a6.9,6.9,0,0,0-2.5.7,2.4,2.4,0,0,0-1.5,2.5,2,2,0,0,0,2,2.2,2.9,2.9,0,0,0,2-1Z"/><path class="cls-1" d="M378.7,54h-2.3V52.8a3.7,3.7,0,0,1-3.1,1.4c-2.5,0-4.1-2.3-4.1-5.8a8.7,8.7,0,0,1,1.5-5.2,5.6,5.6,0,0,1,4.6-1.8h1.1a47,47,0,0,0-.2-5.4l.2-.2,2.3-.4.2.2c-.1,2.2-.2,4.1-.2,12.4,0,3.8,0,4.2.1,5.8Zm-2.3-10.8h-.9a3.4,3.4,0,0,0-2.9,1.4,6.8,6.8,0,0,0-.9,3.7,6.4,6.4,0,0,0,.7,3.2,2.1,2.1,0,0,0,1.8,1,2.6,2.6,0,0,0,2.1-1.2C376.4,47.5,376.4,46.2,376.4,43.2Z"/><path class="cls-1" d="M387.1,53.1a4.4,4.4,0,0,1-2.9,1.1,3.5,3.5,0,0,1-3.5-3.8c0-3.7,3.5-4.4,5.3-4.8l1.1-.2c0-1.3,0-2.5-2.2-2.5a5.9,5.9,0,0,0-3,.9h-.1a9.1,9.1,0,0,0,.1-1.7h.1a8.1,8.1,0,0,1,3.6-.8,3.8,3.8,0,0,1,3.4,1.6c.4.8.4,1.7.4,3.6v2.5c0,2.4,0,3.4.1,5V54h-2.3Zm0-6.1a8.7,8.7,0,0,0-2.6.7,2.5,2.5,0,0,0-1.5,2.5,2,2,0,0,0,2,2.2,3.2,3.2,0,0,0,2.1-1Z"/></g></g></svg>